<svg xmlns="http://www.w3.org/2000/svg" fill="none" viewBox="0 0 128 128">
    <path fill="#000" d="M64 128A64 64 0 1064 0a64 64 0 000 128z"/>
    <path fill="#fff" d="M75.03 73.48c-.4 2.78-1.75 5.04-4.08 6.75-2.34 1.71-5.23 2.57-8.69 2.57-3.91 0-7-1.25-9.26-3.76-2.27-2.5-3.4-5.96-3.4-10.37v-1.79c0-2.82.5-5.28 1.5-7.39 1-2.1 2.43-3.72 4.29-4.85 1.86-1.13 4-1.7 6.43-1.7 3.37 0 6.05.86 8.04 2.57 2 1.71 3.17 4.13 3.52 7.26h-5.63c-.26-1.86-.84-3.21-1.75-4.05-.9-.84-2.19-1.26-3.85-1.26-2.06 0-3.65.75-4.76 2.24-1.1 1.5-1.66 3.72-1.67 6.68v2.04c0 3.08.53 5.37 1.6 6.86 1.06 1.5 2.68 2.24 4.85 2.24 1.68 0 2.99-.4 3.91-1.21.93-.8 1.53-2.06 1.8-3.76h5.63l.02-.07z" style="font-size:48px"/>
</svg>